# xmcd
#
# Track frame offsets:
#	150
#	19085
#	29559
#	42299
#	51814
#	63998
#	74203
#	96329
#	112932
#	122775
#	134187
#	156232
#	173811
#	186289
#	199401
#	212427
#	228528
#	240740
#	248667
#	263272
#	278396
#	289914
#	305335
#	322574
#
# Disc length: 4623 seconds
#
# Revision: 0
# Processed by: cddbd v1.5.2PL0 Copyright (c) Steve Scherf et al.
# Submitted via: EasyCDDAExtractor 16.0.8.2
#
DISCID=5e120d18
DTITLE=Διονυσίου Στράτος - Αφιέρωμα στον Στρ. Διονυσίου 2
DYEAR=2010
DGENRE=Λαϊκή
TTITLE0=Διονυσίου Στράτος - Και λέγε, λέγε [Θαν. Πολυκανδριώτης-Γ. Πάριος]
TTITLE1=Διονυσίου Στράτος-Λουκά Καίτη - Κράτησέ με [Τ. Σούκας-Σμαρούλα Μαραγκο
TTITLE1=υδάκη]
TTITLE2=Διονυσίου Στράτος - Ο δικαστής [Τάκης Σούκας]
TTITLE3=Διονυσίου Στράτος - Του κόσμου το περίγελο [Άκης Πάνου]
TTITLE4=Διονυσίου Στράτος - Βρέχει φωτιά στη στράτα μου [Μ. Πλέσσας-Λ. Παπαδόπ
TTITLE4=ουλος]
TTITLE5=Διονυσίου Στράτος - Ένας αητός γκρεμίστηκε [Α. Ρεπάνης-Ε. Παπαγιαννοπο
TTITLE5=ύλου]
TTITLE6=Διονυσίου Στράτος - Ο Σαλονικιός [Χρ. Νικολόπουλος-Λ. Παπαδόπουλος]
TTITLE7=Διονυσίου Στράτος - Άκου, βρε φίλε [Τ. Σούκας-Κ. Κοφινιώτης]
TTITLE8=Διονυσίου Στράτος - Αγάπη μου επικίνδυνη [Α. Ρεπάνης-Δ. Γκούτης]
TTITLE9=Διονυσίου Στράτος - Και τι δεν κάνω [Άκης Πάνου]
TTITLE10=Διονυσίου Στράτος - Ο Μεμέτης [Μ. Πλέσσας-Κ. Βίρβος]
TTITLE11=Διονυσίου Στράτος - Αποκοιμήθηκα [Τ. Βοσκόπουλος-Μ. Θειόπουλος]
TTITLE12=Αδαμαντίδης Θέμης - Καλύτερα μαζί σου και τρελλός[Α.Χρυσοβέργης-Σ.Για
TTITLE12=τράς/Ε.Χρυσοβέργη]
TTITLE13=Διονυσίου Στέλιος - Με σκότωσε γιατί την αγαπούσα [Χρ. Νικολόπουλος-Λ
TTITLE13=Παπαδόπουλος]
TTITLE14=Γονίδης Σταμάτης - Γυναίκες, γυναίκες [Γ. Παλαιολόγος-Σόφη Παππά]
TTITLE15=Διονυσίου Στέλιος - Καρδιά μου, είχες αγαπήσει [Σπ. Παπαβασιλείου-Κ. 
TTITLE15=Ρουβέλας]
TTITLE16=Καρράς Βασίλης - Μάς υποχρέωσες [Α. Χρυσοβέργης-Σπ. Γιατράς]
TTITLE17=Διονυσίου Άγγελος - Εγώ καλά σού τά 'λεγα [Άκης Πάνου]
TTITLE18=Παπαδοπούλου Πίτσα - Εγώ να δεις [Τ. Μουσαφίρης-ιδίου κ Καίτη Μπόνη]
TTITLE19=Διονυσίου Στέλιος - Τελειώσαμε [Τ. Σούκας-Ν. Λουκάς]
TTITLE20=Ανδρεάτος Γεράσιμος - Νά 'χα το κουράγιο [Άκης Πάνου]
TTITLE21=Διονυσίου Στέλιος - Γιατί, Θεέ μου, η ζωή [Θ. Πολυκανδριώτης-Γ. Πάριο
TTITLE21=ς]
TTITLE22=Διονυσίου Άγγελος-Διονυσίου Στέλιος - Ο παλιατζής [Α. Ρεπάνης-Δ. Γκού
TTITLE22=της]
TTITLE23=Διονυσίου Στέλιος - Τα πήρες όλα [Θ. Πολυκανδριώτης-Γ. Πάριος]
EXTD=
EXTT0=
EXTT1=
EXTT2=
EXTT3=
EXTT4=
EXTT5=
EXTT6=
EXTT7=
EXTT8=
EXTT9=
EXTT10=
EXTT11=
EXTT12=
EXTT13=
EXTT14=
EXTT15=
EXTT16=
EXTT17=
EXTT18=
EXTT19=
EXTT20=
EXTT21=
EXTT22=
EXTT23=
PLAYORDER=
